<?xml version="1.0" encoding="UTF-8"?>
<svg xmlns="http://www.w3.org/2000/svg" xmlns:xlink="http://www.w3.org/1999/xlink" viewBox="0 0 938.81 1090.82">
  <defs>
    <style>
      .cls-1 {
        fill: url(#linear-gradient);
      }

      .cls-2 {
        font-size: 20px;
      }

      .cls-2, .cls-3, .cls-4, .cls-5, .cls-6 {
        font-family: OpenSans, 'Open Sans';
      }

      .cls-7, .cls-8 {
        font-family: OpenSans-Semibold, 'Open Sans';
        font-weight: 600;
      }

      .cls-7, .cls-3, .cls-4 {
        font-size: 17px;
      }

      .cls-7, .cls-4 {
        fill: #232323;
      }

      .cls-9 {
        letter-spacing: .02em;
      }

      .cls-10 {
        font-family: Lora-Regular, Lora;
        font-size: 34px;
      }

      .cls-11 {
        fill: #67dfe5;
      }

      .cls-12 {
        fill: #bababa;
      }

      .cls-13 {
        fill: #ddd;
      }

      .cls-14 {
        fill: #d3d3d3;
      }

      .cls-15 {
        fill: #e293bd;
      }

      .cls-16 {
        fill: #7bb1ff;
      }

      .cls-8 {
        fill: #fff;
        font-size: 16px;
      }

      .cls-17 {
        letter-spacing: -.01em;
      }

      .cls-18 {
        letter-spacing: 0em;
      }

      .cls-19 {
        fill: url(#linear-gradient-8);
      }

      .cls-20 {
        fill: url(#linear-gradient-3);
      }

      .cls-21 {
        fill: url(#linear-gradient-4);
      }

      .cls-22 {
        fill: url(#linear-gradient-2);
      }

      .cls-23 {
        fill: url(#linear-gradient-6);
      }

      .cls-24 {
        fill: url(#linear-gradient-7);
      }

      .cls-25 {
        fill: url(#linear-gradient-5);
      }

      .cls-26 {
        letter-spacing: 0em;
      }

      .cls-27 {
        letter-spacing: -.02em;
      }

      .cls-28 {
        letter-spacing: 0em;
      }

      .cls-29 {
        letter-spacing: 0em;
      }

      .cls-3 {
        fill: #3d3d3d;
      }

      .cls-5 {
        fill: #515151;
      }

      .cls-5, .cls-6 {
        font-size: 15px;
      }

      .cls-6 {
        fill: #424242;
      }

      .cls-30 {
        letter-spacing: 0em;
      }

      .cls-31 {
        letter-spacing: 0em;
      }
    </style>
    <linearGradient id="linear-gradient" x1="547.16" y1="790.7" x2="938.81" y2="790.7" gradientUnits="userSpaceOnUse">
      <stop offset="0" stop-color="#cce0f4"/>
      <stop offset=".18" stop-color="#a0d6ec"/>
      <stop offset=".3" stop-color="#89d2e8"/>
      <stop offset=".47" stop-color="#86cde9"/>
      <stop offset=".65" stop-color="#7ec0ee"/>
      <stop offset=".84" stop-color="#70aaf6"/>
      <stop offset="1" stop-color="#6293ff"/>
    </linearGradient>
    <linearGradient id="linear-gradient-2" y1="821.77" x2="905.47" y2="821.77" xlink:href="#linear-gradient"/>
    <linearGradient id="linear-gradient-3" y1="852.84" x2="916.5" y2="852.84" xlink:href="#linear-gradient"/>
    <linearGradient id="linear-gradient-4" y1="883.91" x2="917.56" y2="883.91" xlink:href="#linear-gradient"/>
    <linearGradient id="linear-gradient-5" y1="914.99" x2="906.98" y2="914.99" xlink:href="#linear-gradient"/>
    <linearGradient id="linear-gradient-6" y1="946.06" x2="895.56" y2="946.06" xlink:href="#linear-gradient"/>
    <linearGradient id="linear-gradient-7" y1="977.13" x2="898.57" y2="977.13" xlink:href="#linear-gradient"/>
    <linearGradient id="linear-gradient-8" y1="1008.2" x2="882.35" y2="1008.2" xlink:href="#linear-gradient"/>
  </defs>
  <g id="data">
    <circle class="cls-12" cx="466.87" cy="790.35" r="11.65"/>
    <circle class="cls-12" cx="442.48" cy="787.71" r="11.65"/>
    <circle class="cls-16" cx="418.59" cy="782.16" r="11.65"/>
    <circle class="cls-11" cx="395.54" cy="773.76" r="11.65"/>
    <circle class="cls-11" cx="373.68" cy="762.64" r="11.65"/>
    <circle class="cls-11" cx="353.31" cy="748.97" r="11.65"/>
    <circle class="cls-11" cx="334.74" cy="732.95" r="11.65"/>
    <circle class="cls-11" cx="318.24" cy="714.8" r="11.65"/>
    <circle class="cls-11" cx="304.04" cy="694.8" r="11.65"/>
    <circle class="cls-11" cx="292.36" cy="673.23" r="11.65"/>
    <circle class="cls-11" cx="283.37" cy="650.41" r="11.65"/>
    <circle class="cls-11" cx="277.19" cy="626.67" r="11.65"/>
    <circle class="cls-11" cx="273.91" cy="602.36" r="11.65"/>
    <circle class="cls-11" cx="273.59" cy="577.84" r="11.65"/>
    <circle class="cls-11" cx="276.23" cy="553.45" r="11.65"/>
    <circle class="cls-11" cx="281.79" cy="529.56" r="11.65"/>
    <circle class="cls-11" cx="290.19" cy="506.52" r="11.65"/>
    <circle class="cls-11" cx="301.31" cy="484.65" r="11.65"/>
    <circle class="cls-11" cx="314.97" cy="464.28" r="11.65"/>
    <circle class="cls-11" cx="331" cy="445.71" r="11.65"/>
    <circle class="cls-11" cx="349.15" cy="429.21" r="11.65"/>
    <circle class="cls-11" cx="369.15" cy="415.01" r="11.65"/>
    <circle class="cls-11" cx="390.72" cy="403.33" r="11.65"/>
    <circle class="cls-11" cx="413.54" cy="394.34" r="11.65"/>
    <circle class="cls-11" cx="437.27" cy="388.16" r="11.65"/>
    <circle class="cls-11" cx="461.58" cy="384.88" r="11.65"/>
    <circle class="cls-11" cx="486.11" cy="384.57" r="11.65"/>
    <circle class="cls-11" cx="510.5" cy="387.2" r="11.65"/>
    <circle class="cls-11" cx="534.39" cy="392.76" r="11.65"/>
    <circle class="cls-11" cx="557.43" cy="401.16" r="11.65"/>
    <circle class="cls-11" cx="579.3" cy="412.28" r="11.65"/>
    <circle class="cls-11" cx="599.66" cy="425.95" r="11.65"/>
    <circle class="cls-11" cx="618.23" cy="441.97" r="11.65"/>
    <circle class="cls-11" cx="634.74" cy="460.12" r="11.65"/>
    <circle class="cls-11" cx="648.93" cy="480.12" r="11.65"/>
    <circle class="cls-15" cx="660.61" cy="501.69" r="11.65"/>
    <circle class="cls-12" cx="669.61" cy="524.51" r="11.65"/>
    <circle class="cls-12" cx="675.79" cy="548.25" r="11.65"/>
    <circle class="cls-12" cx="679.06" cy="572.56" r="11.65"/>
    <circle class="cls-12" cx="679.38" cy="597.08" r="11.65"/>
    <circle class="cls-12" cx="467.07" cy="820.81" r="11.65"/>
    <circle class="cls-12" cx="439.05" cy="817.97" r="11.65"/>
    <circle class="cls-12" cx="411.59" cy="811.77" r="11.65"/>
    <circle class="cls-12" cx="385.08" cy="802.3" r="11.65"/>
    <circle class="cls-12" cx="359.89" cy="789.72" r="11.65"/>
    <circle class="cls-12" cx="336.42" cy="774.18" r="11.65"/>
    <circle class="cls-16" cx="314.98" cy="755.93" r="11.65"/>
    <circle class="cls-11" cx="295.9" cy="735.23" r="11.65"/>
    <circle class="cls-11" cx="279.45" cy="712.38" r="11.65"/>
    <circle class="cls-11" cx="265.88" cy="687.71" r="11.65"/>
    <circle class="cls-11" cx="255.38" cy="661.59" r="11.65"/>
    <circle class="cls-11" cx="248.1" cy="634.39" r="11.65"/>
    <circle class="cls-11" cx="244.16" cy="606.52" r="11.65"/>
    <circle class="cls-11" cx="243.6" cy="578.37" r="11.65"/>
    <circle class="cls-11" cx="246.45" cy="550.36" r="11.65"/>
    <circle class="cls-11" cx="252.64" cy="522.89" r="11.65"/>
    <circle class="cls-11" cx="262.11" cy="496.38" r="11.65"/>
    <circle class="cls-11" cx="274.7" cy="471.2" r="11.65"/>
    <circle class="cls-11" cx="290.23" cy="447.72" r="11.65"/>
    <circle class="cls-11" cx="308.48" cy="426.28" r="11.65"/>
    <circle class="cls-11" cx="329.18" cy="407.2" r="11.65"/>
    <circle class="cls-11" cx="352.03" cy="390.75" r="11.65"/>
    <circle class="cls-11" cx="376.7" cy="377.18" r="11.65"/>
    <circle class="cls-11" cx="402.82" cy="366.68" r="11.65"/>
    <circle class="cls-11" cx="430.02" cy="359.4" r="11.65"/>
    <circle class="cls-11" cx="457.89" cy="355.46" r="11.65"/>
    <circle class="cls-11" cx="486.04" cy="354.91" r="11.65"/>
    <circle class="cls-11" cx="514.05" cy="357.75" r="11.65"/>
    <circle class="cls-11" cx="541.52" cy="363.95" r="11.65"/>
    <circle class="cls-11" cx="568.03" cy="373.41" r="11.65"/>
    <circle class="cls-11" cx="593.22" cy="386" r="11.65"/>
    <circle class="cls-11" cx="616.69" cy="401.53" r="11.65"/>
    <circle class="cls-11" cx="638.13" cy="419.78" r="11.65"/>
    <circle class="cls-11" cx="657.21" cy="440.48" r="11.65"/>
    <circle class="cls-11" cx="673.66" cy="463.33" r="11.65"/>
    <circle class="cls-15" cx="687.23" cy="488" r="11.65"/>
    <circle class="cls-12" cx="697.73" cy="514.12" r="11.65"/>
    <circle class="cls-12" cx="705.01" cy="541.32" r="11.65"/>
    <circle class="cls-12" cx="708.95" cy="569.2" r="11.65"/>
    <circle class="cls-12" cx="709.5" cy="597.35" r="11.65"/>
    <circle class="cls-12" cx="466.45" cy="851.12" r="11.65"/>
    <circle class="cls-12" cx="434.79" cy="847.98" r="11.65"/>
    <circle class="cls-12" cx="403.74" cy="841.05" r="11.65"/>
    <circle class="cls-12" cx="373.75" cy="830.43" r="11.65"/>
    <circle class="cls-12" cx="345.26" cy="816.27" r="11.65"/>
    <circle class="cls-16" cx="318.69" cy="798.77" r="11.65"/>
    <circle class="cls-11" cx="294.42" cy="778.21" r="11.65"/>
    <circle class="cls-11" cx="272.8" cy="754.86" r="11.65"/>
    <circle class="cls-11" cx="254.16" cy="729.09" r="11.65"/>
    <circle class="cls-11" cx="238.75" cy="701.25" r="11.65"/>
    <circle class="cls-11" cx="226.82" cy="671.76" r="11.65"/>
    <circle class="cls-11" cx="218.53" cy="641.04" r="11.65"/>
    <circle class="cls-11" cx="214" cy="609.56" r="11.65"/>
    <circle class="cls-11" cx="213.3" cy="577.75" r="11.65"/>
    <circle class="cls-11" cx="216.43" cy="546.09" r="11.65"/>
    <circle class="cls-11" cx="223.36" cy="515.04" r="11.65"/>
    <circle class="cls-11" cx="233.99" cy="485.06" r="11.65"/>
    <circle class="cls-11" cx="248.15" cy="456.57" r="11.65"/>
    <circle class="cls-11" cx="265.64" cy="429.99" r="11.65"/>
    <circle class="cls-11" cx="286.2" cy="405.72" r="11.65"/>
    <circle class="cls-11" cx="309.55" cy="384.1" r="11.65"/>
    <circle class="cls-11" cx="335.32" cy="365.46" r="11.65"/>
    <circle class="cls-11" cx="363.16" cy="350.06" r="11.65"/>
    <circle class="cls-11" cx="392.65" cy="338.12" r="11.65"/>
    <circle class="cls-11" cx="423.37" cy="329.83" r="11.65"/>
    <circle class="cls-11" cx="454.85" cy="325.3" r="11.65"/>
    <circle class="cls-11" cx="486.66" cy="324.6" r="11.65"/>
    <circle class="cls-11" cx="518.32" cy="327.74" r="11.65"/>
    <circle class="cls-11" cx="549.37" cy="334.67" r="11.65"/>
    <circle class="cls-11" cx="579.36" cy="345.29" r="11.65"/>
    <circle class="cls-11" cx="607.85" cy="359.45" r="11.65"/>
    <circle class="cls-11" cx="634.42" cy="376.94" r="11.65"/>
    <circle class="cls-11" cx="658.69" cy="397.51" r="11.65"/>
    <circle class="cls-11" cx="680.31" cy="420.85" r="11.65"/>
    <circle class="cls-11" cx="698.95" cy="446.63" r="11.65"/>
    <circle class="cls-15" cx="714.36" cy="474.46" r="11.65"/>
    <circle class="cls-12" cx="726.29" cy="503.95" r="11.65"/>
    <circle class="cls-12" cx="734.58" cy="534.67" r="11.65"/>
    <circle class="cls-12" cx="739.11" cy="566.16" r="11.65"/>
    <circle class="cls-12" cx="739.81" cy="597.96" r="11.65"/>
    <circle class="cls-12" cx="465.8" cy="882.26" r="11.65"/>
    <circle class="cls-12" cx="430.39" cy="878.82" r="11.65"/>
    <circle class="cls-12" cx="395.66" cy="871.14" r="11.65"/>
    <circle class="cls-12" cx="362.1" cy="859.32" r="11.65"/>
    <circle class="cls-16" cx="330.22" cy="843.55" r="11.65"/>
    <circle class="cls-11" cx="300.47" cy="824.04" r="11.65"/>
    <circle class="cls-11" cx="273.28" cy="801.1" r="11.65"/>
    <circle class="cls-11" cx="249.06" cy="775.04" r="11.65"/>
    <circle class="cls-11" cx="228.15" cy="746.25" r="11.65"/>
    <circle class="cls-11" cx="210.87" cy="715.16" r="11.65"/>
    <circle class="cls-11" cx="197.47" cy="682.2" r="11.65"/>
    <circle class="cls-11" cx="188.13" cy="647.88" r="11.65"/>
    <circle class="cls-11" cx="183" cy="612.67" r="11.65"/>
    <circle class="cls-11" cx="182.15" cy="577.11" r="11.65"/>
    <circle class="cls-11" cx="185.59" cy="541.7" r="11.65"/>
    <circle class="cls-11" cx="193.27" cy="506.97" r="11.65"/>
    <circle class="cls-11" cx="205.09" cy="473.41" r="11.65"/>
    <circle class="cls-11" cx="220.87" cy="441.52" r="11.65"/>
    <circle class="cls-11" cx="240.37" cy="411.77" r="11.65"/>
    <circle class="cls-11" cx="263.32" cy="384.58" r="11.65"/>
    <circle class="cls-11" cx="289.37" cy="360.36" r="11.65"/>
    <circle class="cls-11" cx="318.16" cy="339.46" r="11.65"/>
    <circle class="cls-11" cx="349.26" cy="322.18" r="11.65"/>
    <circle class="cls-11" cx="382.21" cy="308.77" r="11.65"/>
    <circle class="cls-11" cx="416.54" cy="299.43" r="11.65"/>
    <circle class="cls-11" cx="451.74" cy="294.3" r="11.65"/>
    <circle class="cls-11" cx="487.3" cy="293.45" r="11.65"/>
    <circle class="cls-11" cx="522.71" cy="296.89" r="11.65"/>
    <circle class="cls-11" cx="557.45" cy="304.58" r="11.65"/>
    <circle class="cls-11" cx="591" cy="316.39" r="11.65"/>
    <circle class="cls-11" cx="622.89" cy="332.17" r="11.65"/>
    <circle class="cls-11" cx="652.64" cy="351.67" r="11.65"/>
    <circle class="cls-11" cx="679.83" cy="374.62" r="11.65"/>
    <circle class="cls-11" cx="704.05" cy="400.68" r="11.65"/>
    <circle class="cls-11" cx="724.95" cy="429.46" r="11.65"/>
    <circle class="cls-11" cx="742.23" cy="460.56" r="11.65"/>
    <circle class="cls-15" cx="755.64" cy="493.51" r="11.65"/>
    <circle class="cls-12" cx="764.98" cy="527.84" r="11.65"/>
    <circle class="cls-12" cx="770.11" cy="563.04" r="11.65"/>
    <circle class="cls-12" cx="770.96" cy="598.61" r="11.65"/>
    <circle class="cls-12" cx="466.04" cy="913.06" r="11.65"/>
    <circle class="cls-12" cx="426.91" cy="909.42" r="11.65"/>
    <circle class="cls-12" cx="388.51" cy="901.09" r="11.65"/>
    <circle class="cls-12" cx="351.4" cy="888.2" r="11.65"/>
    <circle class="cls-12" cx="316.11" cy="870.92" r="11.65"/>
    <circle class="cls-16" cx="283.16" cy="849.52" r="11.65"/>
    <circle class="cls-11" cx="253.03" cy="824.3" r="11.65"/>
    <circle class="cls-11" cx="226.16" cy="795.63" r="11.65"/>
    <circle class="cls-11" cx="202.94" cy="763.94" r="11.65"/>
    <circle class="cls-11" cx="183.71" cy="729.67" r="11.65"/>
    <circle class="cls-11" cx="168.75" cy="693.34" r="11.65"/>
    <circle class="cls-11" cx="158.28" cy="655.47" r="11.65"/>
    <circle class="cls-11" cx="152.45" cy="616.61" r="11.65"/>
    <circle class="cls-11" cx="151.35" cy="577.34" r="11.65"/>
    <circle class="cls-11" cx="154.99" cy="538.21" r="11.65"/>
    <circle class="cls-11" cx="163.32" cy="499.82" r="11.65"/>
    <circle class="cls-11" cx="176.21" cy="462.7" r="11.65"/>
    <circle class="cls-11" cx="193.49" cy="427.41" r="11.65"/>
    <circle class="cls-11" cx="214.89" cy="394.47" r="11.65"/>
    <circle class="cls-11" cx="240.11" cy="364.33" r="11.65"/>
    <circle class="cls-11" cx="268.78" cy="337.46" r="11.65"/>
    <circle class="cls-11" cx="300.47" cy="314.24" r="11.65"/>
    <circle class="cls-11" cx="334.74" cy="295.02" r="11.65"/>
    <circle class="cls-11" cx="371.07" cy="280.06" r="11.65"/>
    <circle class="cls-11" cx="408.94" cy="269.59" r="11.65"/>
    <circle class="cls-11" cx="447.8" cy="263.76" r="11.65"/>
    <circle class="cls-11" cx="487.07" cy="262.65" r="11.65"/>
    <circle class="cls-11" cx="526.2" cy="266.29" r="11.65"/>
    <circle class="cls-11" cx="564.59" cy="274.62" r="11.65"/>
    <circle class="cls-11" cx="601.71" cy="287.52" r="11.65"/>
    <circle class="cls-11" cx="637" cy="304.79" r="11.65"/>
    <circle class="cls-11" cx="669.95" cy="326.2" r="11.65"/>
    <circle class="cls-11" cx="700.08" cy="351.41" r="11.65"/>
    <circle class="cls-11" cx="726.95" cy="380.08" r="11.65"/>
    <circle class="cls-11" cx="750.17" cy="411.78" r="11.65"/>
    <circle class="cls-15" cx="769.4" cy="446.04" r="11.65"/>
    <circle class="cls-12" cx="784.36" cy="482.37" r="11.65"/>
    <circle class="cls-12" cx="794.83" cy="520.24" r="11.65"/>
    <circle class="cls-12" cx="800.66" cy="559.1" r="11.65"/>
    <circle class="cls-12" cx="801.76" cy="598.38" r="11.65"/>
    <circle class="cls-12" cx="465.75" cy="944.26" r="11.65"/>
    <circle class="cls-12" cx="422.87" cy="940.36" r="11.65"/>
    <circle class="cls-12" cx="380.77" cy="931.32" r="11.65"/>
    <circle class="cls-12" cx="340.07" cy="917.27" r="11.65"/>
    <circle class="cls-12" cx="301.36" cy="898.42" r="11.65"/>
    <circle class="cls-12" cx="265.2" cy="875.04" r="11.65"/>
    <circle class="cls-16" cx="232.13" cy="847.46" r="11.65"/>
    <circle class="cls-11" cx="202.62" cy="816.11" r="11.65"/>
    <circle class="cls-11" cx="177.1" cy="781.43" r="11.65"/>
    <circle class="cls-11" cx="155.95" cy="743.92" r="11.65"/>
    <circle class="cls-11" cx="139.48" cy="704.14" r="11.65"/>
    <circle class="cls-11" cx="127.92" cy="662.66" r="11.65"/>
    <circle class="cls-11" cx="121.45" cy="620.09" r="11.65"/>
    <circle class="cls-11" cx="120.15" cy="577.05" r="11.65"/>
    <circle class="cls-11" cx="124.05" cy="534.17" r="11.65"/>
    <circle class="cls-11" cx="133.09" cy="492.07" r="11.65"/>
    <circle class="cls-11" cx="147.14" cy="451.37" r="11.65"/>
    <circle class="cls-11" cx="166" cy="412.66" r="11.65"/>
    <circle class="cls-11" cx="189.38" cy="376.5" r="11.65"/>
    <circle class="cls-11" cx="216.95" cy="343.43" r="11.65"/>
    <circle class="cls-11" cx="248.3" cy="313.92" r="11.65"/>
    <circle class="cls-11" cx="282.99" cy="288.4" r="11.65"/>
    <circle class="cls-11" cx="320.49" cy="267.26" r="11.65"/>
    <circle class="cls-11" cx="360.27" cy="250.78" r="11.65"/>
    <circle class="cls-11" cx="401.75" cy="239.22" r="11.65"/>
    <circle class="cls-11" cx="444.32" cy="232.75" r="11.65"/>
    <circle class="cls-11" cx="487.36" cy="231.45" r="11.65"/>
    <circle class="cls-11" cx="530.24" cy="235.35" r="11.65"/>
    <circle class="cls-11" cx="572.34" cy="244.4" r="11.65"/>
    <circle class="cls-11" cx="613.04" cy="258.44" r="11.65"/>
    <circle class="cls-11" cx="651.75" cy="277.3" r="11.65"/>
    <circle class="cls-11" cx="687.91" cy="300.68" r="11.65"/>
    <circle class="cls-11" cx="720.98" cy="328.25" r="11.65"/>
    <circle class="cls-11" cx="750.49" cy="359.6" r="11.65"/>
    <circle class="cls-11" cx="776.01" cy="394.29" r="11.65"/>
    <circle class="cls-15" cx="797.15" cy="431.79" r="11.65"/>
    <circle class="cls-12" cx="813.63" cy="471.58" r="11.65"/>
    <circle class="cls-12" cx="825.19" cy="513.05" r="11.65"/>
    <circle class="cls-12" cx="831.66" cy="555.62" r="11.65"/>
    <circle class="cls-12" cx="832.96" cy="598.66" r="11.65"/>
    <circle class="cls-12" cx="465.56" cy="974.95" r="11.65"/>
    <circle class="cls-12" cx="418.98" cy="970.8" r="11.65"/>
    <circle class="cls-12" cx="373.24" cy="961.07" r="11.65"/>
    <circle class="cls-12" cx="329.01" cy="945.9" r="11.65"/>
    <circle class="cls-12" cx="286.93" cy="925.5" r="11.65"/>
    <circle class="cls-12" cx="247.61" cy="900.19" r="11.65"/>
    <circle class="cls-16" cx="211.63" cy="870.31" r="11.65"/>
    <circle class="cls-11" cx="179.52" cy="836.32" r="11.65"/>
    <circle class="cls-11" cx="151.74" cy="798.7" r="11.65"/>
    <circle class="cls-11" cx="128.69" cy="758.01" r="11.65"/>
    <circle class="cls-11" cx="110.72" cy="714.84" r="11.65"/>
    <circle class="cls-11" cx="98.08" cy="669.82" r="11.65"/>
    <circle class="cls-11" cx="90.96" cy="623.6" r="11.65"/>
    <circle class="cls-11" cx="89.46" cy="576.86" r="11.65"/>
    <circle class="cls-11" cx="93.61" cy="530.28" r="11.65"/>
    <circle class="cls-11" cx="103.34" cy="484.55" r="11.65"/>
    <circle class="cls-11" cx="118.51" cy="440.31" r="11.65"/>
    <circle class="cls-11" cx="138.91" cy="398.23" r="11.65"/>
    <circle class="cls-11" cx="164.23" cy="358.91" r="11.65"/>
    <circle class="cls-11" cx="194.1" cy="322.94" r="11.65"/>
    <circle class="cls-11" cx="228.09" cy="290.82" r="11.65"/>
    <circle class="cls-11" cx="265.71" cy="263.04" r="11.65"/>
    <circle class="cls-11" cx="306.4" cy="239.99" r="11.65"/>
    <circle class="cls-11" cx="349.57" cy="222.02" r="11.65"/>
    <circle class="cls-11" cx="394.59" cy="209.38" r="11.65"/>
    <circle class="cls-11" cx="440.81" cy="202.26" r="11.65"/>
    <circle class="cls-11" cx="487.55" cy="200.76" r="11.65"/>
    <circle class="cls-11" cx="534.13" cy="204.91" r="11.65"/>
    <circle class="cls-11" cx="579.87" cy="214.64" r="11.65"/>
    <circle class="cls-11" cx="624.1" cy="229.82" r="11.65"/>
    <circle class="cls-11" cx="666.18" cy="250.21" r="11.65"/>
    <circle class="cls-11" cx="705.5" cy="275.53" r="11.65"/>
    <circle class="cls-11" cx="741.48" cy="305.4" r="11.65"/>
    <circle class="cls-11" cx="773.59" cy="339.39" r="11.65"/>
    <circle class="cls-11" cx="801.37" cy="377.01" r="11.65"/>
    <circle class="cls-15" cx="824.42" cy="417.7" r="11.65"/>
    <circle class="cls-12" cx="842.39" cy="460.87" r="11.65"/>
    <circle class="cls-12" cx="855.03" cy="505.89" r="11.65"/>
    <circle class="cls-12" cx="862.15" cy="552.11" r="11.65"/>
    <circle class="cls-12" cx="863.65" cy="598.85" r="11.65"/>
    <circle class="cls-12" cx="466.15" cy="1006.88" r="11.65"/>
    <circle class="cls-12" cx="415.71" cy="1002.58" r="11.65"/>
    <circle class="cls-12" cx="366.17" cy="992.22" r="11.65"/>
    <circle class="cls-12" cx="318.23" cy="975.96" r="11.65"/>
    <circle class="cls-12" cx="272.61" cy="954.05" r="11.65"/>
    <circle class="cls-12" cx="229.95" cy="926.8" r="11.65"/>
    <circle class="cls-12" cx="190.9" cy="894.6" r="11.65"/>
    <circle class="cls-16" cx="156.01" cy="857.93" r="11.65"/>
    <circle class="cls-11" cx="125.79" cy="817.32" r="11.65"/>
    <circle class="cls-11" cx="100.69" cy="773.37" r="11.65"/>
    <circle class="cls-11" cx="81.07" cy="726.71" r="11.65"/>
    <circle class="cls-11" cx="67.21" cy="678.03" r="11.65"/>
    <circle class="cls-11" cx="59.33" cy="628.03" r="11.65"/>
    <circle class="cls-11" cx="57.53" cy="577.45" r="11.65"/>
    <circle class="cls-11" cx="61.84" cy="527.02" r="11.65"/>
    <circle class="cls-11" cx="72.2" cy="477.47" r="11.65"/>
    <circle class="cls-11" cx="88.45" cy="429.54" r="11.65"/>
    <circle class="cls-11" cx="110.36" cy="383.91" r="11.65"/>
    <circle class="cls-11" cx="137.61" cy="341.26" r="11.65"/>
    <circle class="cls-11" cx="169.81" cy="302.2" r="11.65"/>
    <circle class="cls-11" cx="206.48" cy="267.31" r="11.65"/>
    <circle class="cls-11" cx="247.09" cy="237.09" r="11.65"/>
    <circle class="cls-11" cx="291.04" cy="211.99" r="11.65"/>
    <circle class="cls-11" cx="337.7" cy="192.37" r="11.65"/>
    <circle class="cls-11" cx="386.38" cy="178.52" r="11.65"/>
    <circle class="cls-11" cx="436.38" cy="170.63" r="11.65"/>
    <circle class="cls-11" cx="486.96" cy="168.83" r="11.65"/>
    <circle class="cls-11" cx="537.39" cy="173.14" r="11.65"/>
    <circle class="cls-11" cx="586.94" cy="183.5" r="11.65"/>
    <circle class="cls-11" cx="634.88" cy="199.75" r="11.65"/>
    <circle class="cls-11" cx="680.5" cy="221.66" r="11.65"/>
    <circle class="cls-11" cx="723.15" cy="248.92" r="11.65"/>
    <circle class="cls-11" cx="762.21" cy="281.11" r="11.65"/>
    <circle class="cls-11" cx="797.1" cy="317.78" r="11.65"/>
    <circle class="cls-15" cx="827.32" cy="358.39" r="11.65"/>
    <circle class="cls-14" cx="852.42" cy="402.34" r="11.65"/>
    <circle class="cls-12" cx="872.04" cy="449" r="11.65"/>
    <circle class="cls-12" cx="885.9" cy="497.68" r="11.65"/>
    <circle class="cls-12" cx="893.78" cy="547.68" r="11.65"/>
    <circle class="cls-12" cx="895.58" cy="598.26" r="11.65"/>
  </g>
  <g id="no_data" data-name="no data">
    <circle class="cls-13" cx="466.87" cy="790.35" r="11.65"/>
    <circle class="cls-13" cx="442.48" cy="787.71" r="11.65"/>
    <circle class="cls-13" cx="669.61" cy="524.51" r="11.65"/>
    <circle class="cls-13" cx="675.79" cy="548.25" r="11.65"/>
    <circle class="cls-13" cx="679.06" cy="572.56" r="11.65"/>
    <circle class="cls-13" cx="679.38" cy="597.08" r="11.65"/>
    <circle class="cls-13" cx="467.07" cy="820.81" r="11.65"/>
    <circle class="cls-13" cx="439.05" cy="817.97" r="11.65"/>
    <circle class="cls-13" cx="411.59" cy="811.77" r="11.65"/>
    <circle class="cls-13" cx="385.08" cy="802.3" r="11.65"/>
    <circle class="cls-13" cx="359.89" cy="789.72" r="11.65"/>
    <circle class="cls-13" cx="336.42" cy="774.18" r="11.65"/>
    <circle class="cls-13" cx="697.73" cy="514.12" r="11.65"/>
    <circle class="cls-13" cx="705.01" cy="541.32" r="11.65"/>
    <circle class="cls-13" cx="708.95" cy="569.2" r="11.65"/>
    <circle class="cls-13" cx="709.5" cy="597.35" r="11.65"/>
    <circle class="cls-13" cx="466.45" cy="851.12" r="11.65"/>
    <circle class="cls-13" cx="434.79" cy="847.98" r="11.65"/>
    <circle class="cls-13" cx="403.74" cy="841.05" r="11.65"/>
    <circle class="cls-13" cx="373.75" cy="830.43" r="11.65"/>
    <circle class="cls-13" cx="345.26" cy="816.27" r="11.65"/>
    <circle class="cls-13" cx="726.29" cy="503.95" r="11.65"/>
    <circle class="cls-13" cx="734.58" cy="534.67" r="11.65"/>
    <circle class="cls-13" cx="739.11" cy="566.16" r="11.65"/>
    <circle class="cls-13" cx="739.81" cy="597.96" r="11.65"/>
    <circle class="cls-13" cx="465.8" cy="882.26" r="11.65"/>
    <circle class="cls-13" cx="430.39" cy="878.82" r="11.65"/>
    <circle class="cls-13" cx="395.66" cy="871.14" r="11.65"/>
    <circle class="cls-13" cx="362.1" cy="859.32" r="11.65"/>
    <circle class="cls-13" cx="764.98" cy="527.84" r="11.65"/>
    <circle class="cls-13" cx="770.11" cy="563.04" r="11.65"/>
    <circle class="cls-13" cx="770.96" cy="598.61" r="11.65"/>
    <circle class="cls-13" cx="466.04" cy="913.06" r="11.65"/>
    <circle class="cls-13" cx="426.91" cy="909.42" r="11.65"/>
    <circle class="cls-13" cx="388.51" cy="901.09" r="11.65"/>
    <circle class="cls-13" cx="351.4" cy="888.2" r="11.65"/>
    <circle class="cls-13" cx="316.11" cy="870.92" r="11.65"/>
    <circle class="cls-13" cx="784.36" cy="482.37" r="11.65"/>
    <circle class="cls-13" cx="794.83" cy="520.24" r="11.65"/>
    <circle class="cls-13" cx="800.66" cy="559.1" r="11.65"/>
    <circle class="cls-13" cx="801.76" cy="598.38" r="11.65"/>
    <circle class="cls-13" cx="465.75" cy="944.26" r="11.65"/>
    <circle class="cls-13" cx="422.87" cy="940.36" r="11.65"/>
    <circle class="cls-13" cx="380.77" cy="931.32" r="11.65"/>
    <circle class="cls-13" cx="340.07" cy="917.27" r="11.65"/>
    <circle class="cls-13" cx="301.36" cy="898.42" r="11.65"/>
    <circle class="cls-13" cx="265.2" cy="875.04" r="11.65"/>
    <circle class="cls-13" cx="813.63" cy="471.58" r="11.65"/>
    <circle class="cls-13" cx="825.19" cy="513.05" r="11.65"/>
    <circle class="cls-13" cx="831.66" cy="555.62" r="11.65"/>
    <circle class="cls-13" cx="832.96" cy="598.66" r="11.65"/>
    <circle class="cls-13" cx="465.56" cy="974.95" r="11.65"/>
    <circle class="cls-13" cx="418.98" cy="970.8" r="11.65"/>
    <circle class="cls-13" cx="373.24" cy="961.07" r="11.65"/>
    <circle class="cls-13" cx="329.01" cy="945.9" r="11.65"/>
    <circle class="cls-13" cx="286.93" cy="925.5" r="11.65"/>
    <circle class="cls-13" cx="247.61" cy="900.19" r="11.65"/>
    <circle class="cls-13" cx="842.39" cy="460.87" r="11.65"/>
    <circle class="cls-13" cx="855.03" cy="505.89" r="11.65"/>
    <circle class="cls-13" cx="862.15" cy="552.11" r="11.65"/>
    <circle class="cls-13" cx="863.65" cy="598.85" r="11.65"/>
    <circle class="cls-13" cx="466.15" cy="1006.88" r="11.65"/>
    <circle class="cls-13" cx="415.71" cy="1002.58" r="11.65"/>
    <circle class="cls-13" cx="366.17" cy="992.22" r="11.65"/>
    <circle class="cls-13" cx="318.23" cy="975.96" r="11.65"/>
    <circle class="cls-13" cx="272.61" cy="954.05" r="11.65"/>
    <circle class="cls-13" cx="229.95" cy="926.8" r="11.65"/>
    <circle class="cls-13" cx="190.9" cy="894.6" r="11.65"/>
    <circle class="cls-13" cx="872.04" cy="449" r="11.65"/>
    <circle class="cls-13" cx="885.9" cy="497.68" r="11.65"/>
    <circle class="cls-13" cx="893.78" cy="547.68" r="11.65"/>
    <circle class="cls-13" cx="895.58" cy="598.26" r="11.65"/>
  </g>
  <g id="Layer_9" data-name="Layer 9">
    <circle class="cls-11" cx="23.37" cy="130.34" r="14.5"/>
    <circle class="cls-15" cx="23.37" cy="164.73" r="14.5"/>
    <circle class="cls-16" cx="23.37" cy="95.95" r="14.5"/>
    <text class="cls-10" transform="translate(0 28.9)"><tspan class="cls-9" x="0" y="0">L</tspan><tspan class="cls-31" x="20.4" y="0">a</tspan><tspan class="cls-26" x="37.94" y="0">k</tspan><tspan x="55.96" y="0">e </tspan><tspan class="cls-18" x="83.33" y="0">B</tspan><tspan x="104.21" y="0">imidji lost an </tspan><tspan class="cls-17" x="314.05" y="0">a</tspan><tspan class="cls-28" x="331.19" y="0">v</tspan><tspan x="348.19" y="0">e</tspan><tspan class="cls-26" x="366.62" y="0">r</tspan><tspan class="cls-31" x="381.1" y="0">a</tspan><tspan class="cls-30" x="398.64" y="0">g</tspan><tspan x="417.28" y="0">e </tspan><tspan class="cls-28" x="444.64" y="0">o</tspan><tspan x="464.36" y="0">f </tspan><tspan class="cls-27" x="484.8" y="0">2</tspan><tspan x="502.31" y="0">4 i</tspan><tspan class="cls-30" x="539.23" y="0">c</tspan><tspan x="557.15" y="0">e </tspan><tspan class="cls-28" x="584.52" y="0">cov</tspan><tspan x="639.16" y="0">er d</tspan><tspan class="cls-29" x="701.58" y="0">a</tspan><tspan x="718.78" y="0">ys sin</tspan><tspan class="cls-28" x="807.35" y="0">c</tspan><tspan x="825.27" y="0">e 1958.</tspan></text>
    <text class="cls-2" transform="translate(1.85 57.29)"><tspan x="0" y="0">Duration of ice cover days, averaged by decade.</tspan></text>
    <text class="cls-3" transform="translate(47.56 102.61)"><tspan x="0" y="0">Ice is first observed.</tspan></text>
    <text class="cls-3" transform="translate(47.56 136.61)"><tspan x="0" y="0">Lake is covered by ice.</tspan></text>
    <text class="cls-3" transform="translate(47.56 170.61)"><tspan x="0" y="0">Ice is melted.</tspan></text>
  </g>
  <g id="Layer_6" data-name="Layer 6">
    <rect class="cls-1" x="547.16" y="779.45" width="391.66" height="22.49"/>
    <rect class="cls-22" x="547.16" y="810.52" width="358.32" height="22.49"/>
    <rect class="cls-20" x="547.16" y="841.59" width="369.34" height="22.49"/>
    <rect class="cls-21" x="547.16" y="872.67" width="370.4" height="22.49"/>
    <rect class="cls-25" x="547.16" y="903.74" width="359.82" height="22.49"/>
    <rect class="cls-23" x="547.16" y="934.81" width="348.41" height="22.49"/>
    <rect class="cls-24" x="547.16" y="965.88" width="351.41" height="22.49"/>
    <rect class="cls-19" x="547.16" y="996.95" width="335.19" height="22.49"/>
  </g>
  <g id="Layer_8" data-name="Layer 8">
    <text class="cls-6" transform="translate(448.13 1039.76)"><tspan x="0" y="0">Nov.</tspan></text>
    <text class="cls-6" transform="translate(118.13 885.76)"><tspan x="0" y="0">Dec.</tspan></text>
    <text class="cls-5" transform="translate(.13 1068.76)"><tspan x="0" y="0">Source: Minnesota Department of Natural Resources.</tspan><tspan x="0" y="18">Note: Number of records within each decade may vary due to missing data for certain years.</tspan></text>
    <text class="cls-6" transform="translate(10.13 580.76)"><tspan x="0" y="0">Jan.</tspan></text>
    <text class="cls-6" transform="translate(167.13 247.76)"><tspan x="0" y="0">Feb.</tspan></text>
    <text class="cls-6" transform="translate(473.13 141.76)"><tspan x="0" y="0">Mar.</tspan></text>
    <text class="cls-6" transform="translate(812.13 301.76)"><tspan x="0" y="0">Apr.</tspan></text>
    <text class="cls-4" transform="translate(489.2 796.02)"><tspan x="0" y="0">1950s</tspan></text>
    <text class="cls-7" transform="translate(547.2 769.02)"><tspan x="0" y="0">Average Ice cover days</tspan></text>
    <text class="cls-8" transform="translate(865.2 796.02)"><tspan x="0" y="0">163 days</tspan></text>
    <text class="cls-8" transform="translate(872.2 827.02)"><tspan x="0" y="0">149</tspan></text>
    <text class="cls-8" transform="translate(882.2 859.02)"><tspan x="0" y="0">154</tspan></text>
    <text class="cls-8" transform="translate(882.2 890.02)"><tspan x="0" y="0">154</tspan></text>
    <text class="cls-8" transform="translate(873.2 921.02)"><tspan x="0" y="0">150</tspan></text>
    <text class="cls-8" transform="translate(862.2 952.02)"><tspan x="0" y="0">145</tspan></text>
    <text class="cls-8" transform="translate(864.2 983.02)"><tspan x="0" y="0">146</tspan></text>
    <text class="cls-4" transform="translate(489.2 827.31)"><tspan x="0" y="0">1960s</tspan></text>
    <text class="cls-4" transform="translate(489.2 858.59)"><tspan x="0" y="0">1970s</tspan></text>
    <text class="cls-4" transform="translate(489.2 889.88)"><tspan x="0" y="0">1980s</tspan></text>
    <text class="cls-4" transform="translate(489.2 921.16)"><tspan x="0" y="0">1990s</tspan></text>
    <text class="cls-4" transform="translate(489.2 952.45)"><tspan x="0" y="0">2000s</tspan></text>
    <text class="cls-4" transform="translate(489.2 983.74)"><tspan x="0" y="0">2010s</tspan></text>
    <text class="cls-4" transform="translate(489.2 1015.02)"><tspan x="0" y="0">2020s</tspan></text>
    <text class="cls-8" transform="translate(850.02 1014.22)"><tspan x="0" y="0">139</tspan></text>
  </g>
</svg>